<mxfile host="app.diagrams.net" modified="2020-07-08T12:39:04.387Z" agent="5.0 (Windows NT 6.3; Win64; x64) AppleWebKit/537.36 (KHTML, like Gecko) Chrome/83.0.4103.116 Safari/537.36" etag="oBvAbPyu7_SxeasQFRnL" version="13.3.9" type="github">
  <diagram id="9-rZs_EdVSM4bVnFZ2pg" name="Page-1">
    <mxGraphModel dx="1021" dy="472" grid="1" gridSize="10" guides="1" tooltips="1" connect="1" arrows="1" fold="1" page="1" pageScale="1" pageWidth="827" pageHeight="1169" math="0" shadow="0">
      <root>
        <mxCell id="0" />
        <mxCell id="1" parent="0" />
        <mxCell id="NktsKnsuioMNZa4gkGov-2" value="City" style="shape=table;startSize=30;container=1;collapsible=1;childLayout=tableLayout;fixedRows=1;rowLines=0;fontStyle=1;align=center;resizeLast=1;" vertex="1" parent="1">
          <mxGeometry y="200" width="180" height="310" as="geometry">
            <mxRectangle x="80" y="230" width="60" height="30" as="alternateBounds" />
          </mxGeometry>
        </mxCell>
        <mxCell id="NktsKnsuioMNZa4gkGov-3" value="" style="shape=partialRectangle;collapsible=0;dropTarget=0;pointerEvents=0;fillColor=none;top=0;left=0;bottom=1;right=0;points=[[0,0.5],[1,0.5]];portConstraint=eastwest;" vertex="1" parent="NktsKnsuioMNZa4gkGov-2">
          <mxGeometry y="30" width="180" height="30" as="geometry" />
        </mxCell>
        <mxCell id="NktsKnsuioMNZa4gkGov-4" value="Class" style="shape=partialRectangle;connectable=0;fillColor=none;top=0;left=0;bottom=0;right=0;fontStyle=1;overflow=hidden;" vertex="1" parent="NktsKnsuioMNZa4gkGov-3">
          <mxGeometry width="80" height="30" as="geometry" />
        </mxCell>
        <mxCell id="NktsKnsuioMNZa4gkGov-5" value="Type" style="shape=partialRectangle;connectable=0;fillColor=none;top=0;left=0;bottom=0;right=0;align=left;spacingLeft=6;fontStyle=5;overflow=hidden;" vertex="1" parent="NktsKnsuioMNZa4gkGov-3">
          <mxGeometry x="80" width="100" height="30" as="geometry" />
        </mxCell>
        <mxCell id="NktsKnsuioMNZa4gkGov-22" style="shape=partialRectangle;collapsible=0;dropTarget=0;pointerEvents=0;fillColor=none;top=0;left=0;bottom=0;right=0;points=[[0,0.5],[1,0.5]];portConstraint=eastwest;" vertex="1" parent="NktsKnsuioMNZa4gkGov-2">
          <mxGeometry y="60" width="180" height="30" as="geometry" />
        </mxCell>
        <mxCell id="NktsKnsuioMNZa4gkGov-23" value="oid" style="shape=partialRectangle;connectable=0;fillColor=none;top=0;left=0;bottom=0;right=0;editable=1;overflow=hidden;" vertex="1" parent="NktsKnsuioMNZa4gkGov-22">
          <mxGeometry width="80" height="30" as="geometry" />
        </mxCell>
        <mxCell id="NktsKnsuioMNZa4gkGov-24" value="UUID" style="shape=partialRectangle;connectable=0;fillColor=none;top=0;left=0;bottom=0;right=0;align=left;spacingLeft=6;overflow=hidden;" vertex="1" parent="NktsKnsuioMNZa4gkGov-22">
          <mxGeometry x="80" width="100" height="30" as="geometry" />
        </mxCell>
        <mxCell id="NktsKnsuioMNZa4gkGov-6" value="" style="shape=partialRectangle;collapsible=0;dropTarget=0;pointerEvents=0;fillColor=none;top=0;left=0;bottom=0;right=0;points=[[0,0.5],[1,0.5]];portConstraint=eastwest;" vertex="1" parent="NktsKnsuioMNZa4gkGov-2">
          <mxGeometry y="90" width="180" height="30" as="geometry" />
        </mxCell>
        <mxCell id="NktsKnsuioMNZa4gkGov-7" value="EnglishName" style="shape=partialRectangle;connectable=0;fillColor=none;top=0;left=0;bottom=0;right=0;editable=1;overflow=hidden;" vertex="1" parent="NktsKnsuioMNZa4gkGov-6">
          <mxGeometry width="80" height="30" as="geometry" />
        </mxCell>
        <mxCell id="NktsKnsuioMNZa4gkGov-8" value="String" style="shape=partialRectangle;connectable=0;fillColor=none;top=0;left=0;bottom=0;right=0;align=left;spacingLeft=6;overflow=hidden;" vertex="1" parent="NktsKnsuioMNZa4gkGov-6">
          <mxGeometry x="80" width="100" height="30" as="geometry" />
        </mxCell>
        <mxCell id="NktsKnsuioMNZa4gkGov-9" value="" style="shape=partialRectangle;collapsible=0;dropTarget=0;pointerEvents=0;fillColor=none;top=0;left=0;bottom=0;right=0;points=[[0,0.5],[1,0.5]];portConstraint=eastwest;" vertex="1" parent="NktsKnsuioMNZa4gkGov-2">
          <mxGeometry y="120" width="180" height="30" as="geometry" />
        </mxCell>
        <mxCell id="NktsKnsuioMNZa4gkGov-10" value="ChineseName" style="shape=partialRectangle;connectable=0;fillColor=none;top=0;left=0;bottom=0;right=0;editable=1;overflow=hidden;" vertex="1" parent="NktsKnsuioMNZa4gkGov-9">
          <mxGeometry width="80" height="30" as="geometry" />
        </mxCell>
        <mxCell id="NktsKnsuioMNZa4gkGov-11" value="String" style="shape=partialRectangle;connectable=0;fillColor=none;top=0;left=0;bottom=0;right=0;align=left;spacingLeft=6;overflow=hidden;" vertex="1" parent="NktsKnsuioMNZa4gkGov-9">
          <mxGeometry x="80" width="100" height="30" as="geometry" />
        </mxCell>
        <mxCell id="NktsKnsuioMNZa4gkGov-12" value="" style="shape=partialRectangle;collapsible=0;dropTarget=0;pointerEvents=0;fillColor=none;top=0;left=0;bottom=0;right=0;points=[[0,0.5],[1,0.5]];portConstraint=eastwest;" vertex="1" parent="NktsKnsuioMNZa4gkGov-2">
          <mxGeometry y="150" width="180" height="30" as="geometry" />
        </mxCell>
        <mxCell id="NktsKnsuioMNZa4gkGov-13" value="latitude" style="shape=partialRectangle;connectable=0;fillColor=none;top=0;left=0;bottom=0;right=0;editable=1;overflow=hidden;" vertex="1" parent="NktsKnsuioMNZa4gkGov-12">
          <mxGeometry width="80" height="30" as="geometry" />
        </mxCell>
        <mxCell id="NktsKnsuioMNZa4gkGov-14" value="Double" style="shape=partialRectangle;connectable=0;fillColor=none;top=0;left=0;bottom=0;right=0;align=left;spacingLeft=6;overflow=hidden;" vertex="1" parent="NktsKnsuioMNZa4gkGov-12">
          <mxGeometry x="80" width="100" height="30" as="geometry" />
        </mxCell>
        <mxCell id="NktsKnsuioMNZa4gkGov-19" style="shape=partialRectangle;collapsible=0;dropTarget=0;pointerEvents=0;fillColor=none;top=0;left=0;bottom=0;right=0;points=[[0,0.5],[1,0.5]];portConstraint=eastwest;" vertex="1" parent="NktsKnsuioMNZa4gkGov-2">
          <mxGeometry y="180" width="180" height="30" as="geometry" />
        </mxCell>
        <mxCell id="NktsKnsuioMNZa4gkGov-20" value="longitude" style="shape=partialRectangle;connectable=0;fillColor=none;top=0;left=0;bottom=0;right=0;editable=1;overflow=hidden;" vertex="1" parent="NktsKnsuioMNZa4gkGov-19">
          <mxGeometry width="80" height="30" as="geometry" />
        </mxCell>
        <mxCell id="NktsKnsuioMNZa4gkGov-21" value="Double" style="shape=partialRectangle;connectable=0;fillColor=none;top=0;left=0;bottom=0;right=0;align=left;spacingLeft=6;overflow=hidden;" vertex="1" parent="NktsKnsuioMNZa4gkGov-19">
          <mxGeometry x="80" width="100" height="30" as="geometry" />
        </mxCell>
        <mxCell id="NktsKnsuioMNZa4gkGov-25" style="shape=partialRectangle;collapsible=0;dropTarget=0;pointerEvents=0;fillColor=none;top=0;left=0;bottom=0;right=0;points=[[0,0.5],[1,0.5]];portConstraint=eastwest;" vertex="1" parent="NktsKnsuioMNZa4gkGov-2">
          <mxGeometry y="210" width="180" height="30" as="geometry" />
        </mxCell>
        <mxCell id="NktsKnsuioMNZa4gkGov-26" value="description" style="shape=partialRectangle;connectable=0;fillColor=none;top=0;left=0;bottom=0;right=0;editable=1;overflow=hidden;" vertex="1" parent="NktsKnsuioMNZa4gkGov-25">
          <mxGeometry width="80" height="30" as="geometry" />
        </mxCell>
        <mxCell id="NktsKnsuioMNZa4gkGov-27" value="String" style="shape=partialRectangle;connectable=0;fillColor=none;top=0;left=0;bottom=0;right=0;align=left;spacingLeft=6;overflow=hidden;" vertex="1" parent="NktsKnsuioMNZa4gkGov-25">
          <mxGeometry x="80" width="100" height="30" as="geometry" />
        </mxCell>
        <mxCell id="NktsKnsuioMNZa4gkGov-28" style="shape=partialRectangle;collapsible=0;dropTarget=0;pointerEvents=0;fillColor=none;top=0;left=0;bottom=0;right=0;points=[[0,0.5],[1,0.5]];portConstraint=eastwest;" vertex="1" parent="NktsKnsuioMNZa4gkGov-2">
          <mxGeometry y="240" width="180" height="30" as="geometry" />
        </mxCell>
        <mxCell id="NktsKnsuioMNZa4gkGov-29" value="link" style="shape=partialRectangle;connectable=0;fillColor=none;top=0;left=0;bottom=0;right=0;editable=1;overflow=hidden;" vertex="1" parent="NktsKnsuioMNZa4gkGov-28">
          <mxGeometry width="80" height="30" as="geometry" />
        </mxCell>
        <mxCell id="NktsKnsuioMNZa4gkGov-30" value="String" style="shape=partialRectangle;connectable=0;fillColor=none;top=0;left=0;bottom=0;right=0;align=left;spacingLeft=6;overflow=hidden;" vertex="1" parent="NktsKnsuioMNZa4gkGov-28">
          <mxGeometry x="80" width="100" height="30" as="geometry" />
        </mxCell>
        <mxCell id="NktsKnsuioMNZa4gkGov-31" style="shape=partialRectangle;collapsible=0;dropTarget=0;pointerEvents=0;fillColor=none;top=0;left=0;bottom=0;right=0;points=[[0,0.5],[1,0.5]];portConstraint=eastwest;" vertex="1" parent="NktsKnsuioMNZa4gkGov-2">
          <mxGeometry y="270" width="180" height="30" as="geometry" />
        </mxCell>
        <mxCell id="NktsKnsuioMNZa4gkGov-32" value="cityImg" style="shape=partialRectangle;connectable=0;fillColor=none;top=0;left=0;bottom=0;right=0;editable=1;overflow=hidden;" vertex="1" parent="NktsKnsuioMNZa4gkGov-31">
          <mxGeometry width="80" height="30" as="geometry" />
        </mxCell>
        <mxCell id="NktsKnsuioMNZa4gkGov-33" value="Localfile" style="shape=partialRectangle;connectable=0;fillColor=none;top=0;left=0;bottom=0;right=0;align=left;spacingLeft=6;overflow=hidden;" vertex="1" parent="NktsKnsuioMNZa4gkGov-31">
          <mxGeometry x="80" width="100" height="30" as="geometry" />
        </mxCell>
        <mxCell id="NktsKnsuioMNZa4gkGov-130" style="edgeStyle=orthogonalEdgeStyle;rounded=0;orthogonalLoop=1;jettySize=auto;html=1;exitX=1;exitY=0.5;exitDx=0;exitDy=0;" edge="1" parent="1" source="NktsKnsuioMNZa4gkGov-22">
          <mxGeometry relative="1" as="geometry">
            <mxPoint x="280" y="310" as="targetPoint" />
            <Array as="points">
              <mxPoint x="210" y="275" />
              <mxPoint x="210" y="310" />
            </Array>
          </mxGeometry>
        </mxCell>
        <mxCell id="NktsKnsuioMNZa4gkGov-35" value="Indicator" style="shape=table;startSize=30;container=1;collapsible=1;childLayout=tableLayout;fixedRows=1;rowLines=0;fontStyle=1;align=center;resizeLast=1;" vertex="1" parent="1">
          <mxGeometry x="280" y="200" width="180" height="370" as="geometry" />
        </mxCell>
        <mxCell id="NktsKnsuioMNZa4gkGov-36" value="" style="shape=partialRectangle;collapsible=0;dropTarget=0;pointerEvents=0;fillColor=none;top=0;left=0;bottom=1;right=0;points=[[0,0.5],[1,0.5]];portConstraint=eastwest;" vertex="1" parent="NktsKnsuioMNZa4gkGov-35">
          <mxGeometry y="30" width="180" height="30" as="geometry" />
        </mxCell>
        <mxCell id="NktsKnsuioMNZa4gkGov-37" value="Class" style="shape=partialRectangle;connectable=0;fillColor=none;top=0;left=0;bottom=0;right=0;fontStyle=1;overflow=hidden;" vertex="1" parent="NktsKnsuioMNZa4gkGov-36">
          <mxGeometry width="106.5" height="30" as="geometry" />
        </mxCell>
        <mxCell id="NktsKnsuioMNZa4gkGov-38" value="Type" style="shape=partialRectangle;connectable=0;fillColor=none;top=0;left=0;bottom=0;right=0;align=left;spacingLeft=6;fontStyle=5;overflow=hidden;" vertex="1" parent="NktsKnsuioMNZa4gkGov-36">
          <mxGeometry x="106.5" width="73.5" height="30" as="geometry" />
        </mxCell>
        <mxCell id="NktsKnsuioMNZa4gkGov-39" value="" style="shape=partialRectangle;collapsible=0;dropTarget=0;pointerEvents=0;fillColor=none;top=0;left=0;bottom=0;right=0;points=[[0,0.5],[1,0.5]];portConstraint=eastwest;" vertex="1" parent="NktsKnsuioMNZa4gkGov-35">
          <mxGeometry y="60" width="180" height="30" as="geometry" />
        </mxCell>
        <mxCell id="NktsKnsuioMNZa4gkGov-40" value="oid" style="shape=partialRectangle;connectable=0;fillColor=none;top=0;left=0;bottom=0;right=0;editable=1;overflow=hidden;" vertex="1" parent="NktsKnsuioMNZa4gkGov-39">
          <mxGeometry width="106.5" height="30" as="geometry" />
        </mxCell>
        <mxCell id="NktsKnsuioMNZa4gkGov-41" value="UUID" style="shape=partialRectangle;connectable=0;fillColor=none;top=0;left=0;bottom=0;right=0;align=left;spacingLeft=6;overflow=hidden;" vertex="1" parent="NktsKnsuioMNZa4gkGov-39">
          <mxGeometry x="106.5" width="73.5" height="30" as="geometry" />
        </mxCell>
        <mxCell id="NktsKnsuioMNZa4gkGov-42" value="" style="shape=partialRectangle;collapsible=0;dropTarget=0;pointerEvents=0;fillColor=none;top=0;left=0;bottom=0;right=0;points=[[0,0.5],[1,0.5]];portConstraint=eastwest;" vertex="1" parent="NktsKnsuioMNZa4gkGov-35">
          <mxGeometry y="90" width="180" height="30" as="geometry" />
        </mxCell>
        <mxCell id="NktsKnsuioMNZa4gkGov-43" value="cityOid" style="shape=partialRectangle;connectable=0;fillColor=none;top=0;left=0;bottom=0;right=0;editable=1;overflow=hidden;" vertex="1" parent="NktsKnsuioMNZa4gkGov-42">
          <mxGeometry width="106.5" height="30" as="geometry" />
        </mxCell>
        <mxCell id="NktsKnsuioMNZa4gkGov-44" value="UUID" style="shape=partialRectangle;connectable=0;fillColor=none;top=0;left=0;bottom=0;right=0;align=left;spacingLeft=6;overflow=hidden;" vertex="1" parent="NktsKnsuioMNZa4gkGov-42">
          <mxGeometry x="106.5" width="73.5" height="30" as="geometry" />
        </mxCell>
        <mxCell id="NktsKnsuioMNZa4gkGov-66" style="shape=partialRectangle;collapsible=0;dropTarget=0;pointerEvents=0;fillColor=none;top=0;left=0;bottom=0;right=0;points=[[0,0.5],[1,0.5]];portConstraint=eastwest;" vertex="1" parent="NktsKnsuioMNZa4gkGov-35">
          <mxGeometry y="120" width="180" height="30" as="geometry" />
        </mxCell>
        <mxCell id="NktsKnsuioMNZa4gkGov-67" value="year" style="shape=partialRectangle;connectable=0;fillColor=none;top=0;left=0;bottom=0;right=0;editable=1;overflow=hidden;" vertex="1" parent="NktsKnsuioMNZa4gkGov-66">
          <mxGeometry width="106.5" height="30" as="geometry" />
        </mxCell>
        <mxCell id="NktsKnsuioMNZa4gkGov-68" value="Integer" style="shape=partialRectangle;connectable=0;fillColor=none;top=0;left=0;bottom=0;right=0;align=left;spacingLeft=6;overflow=hidden;" vertex="1" parent="NktsKnsuioMNZa4gkGov-66">
          <mxGeometry x="106.5" width="73.5" height="30" as="geometry" />
        </mxCell>
        <mxCell id="NktsKnsuioMNZa4gkGov-45" value="" style="shape=partialRectangle;collapsible=0;dropTarget=0;pointerEvents=0;fillColor=none;top=0;left=0;bottom=0;right=0;points=[[0,0.5],[1,0.5]];portConstraint=eastwest;" vertex="1" parent="NktsKnsuioMNZa4gkGov-35">
          <mxGeometry y="150" width="180" height="30" as="geometry" />
        </mxCell>
        <mxCell id="NktsKnsuioMNZa4gkGov-46" value="economy" style="shape=partialRectangle;connectable=0;fillColor=#ffe6cc;top=0;left=0;bottom=0;right=0;editable=1;overflow=hidden;strokeColor=#d79b00;" vertex="1" parent="NktsKnsuioMNZa4gkGov-45">
          <mxGeometry width="106.5" height="30" as="geometry" />
        </mxCell>
        <mxCell id="NktsKnsuioMNZa4gkGov-47" value="Double" style="shape=partialRectangle;connectable=0;fillColor=none;top=0;left=0;bottom=0;right=0;align=left;spacingLeft=6;overflow=hidden;" vertex="1" parent="NktsKnsuioMNZa4gkGov-45">
          <mxGeometry x="106.5" width="73.5" height="30" as="geometry" />
        </mxCell>
        <mxCell id="NktsKnsuioMNZa4gkGov-60" style="shape=partialRectangle;collapsible=0;dropTarget=0;pointerEvents=0;fillColor=none;top=0;left=0;bottom=0;right=0;points=[[0,0.5],[1,0.5]];portConstraint=eastwest;" vertex="1" parent="NktsKnsuioMNZa4gkGov-35">
          <mxGeometry y="180" width="180" height="30" as="geometry" />
        </mxCell>
        <mxCell id="NktsKnsuioMNZa4gkGov-61" value="finance" style="shape=partialRectangle;connectable=0;fillColor=#ffe6cc;top=0;left=0;bottom=0;right=0;editable=1;overflow=hidden;strokeColor=#d79b00;" vertex="1" parent="NktsKnsuioMNZa4gkGov-60">
          <mxGeometry width="106.5" height="30" as="geometry" />
        </mxCell>
        <mxCell id="NktsKnsuioMNZa4gkGov-62" value="Double" style="shape=partialRectangle;connectable=0;fillColor=none;top=0;left=0;bottom=0;right=0;align=left;spacingLeft=6;overflow=hidden;" vertex="1" parent="NktsKnsuioMNZa4gkGov-60">
          <mxGeometry x="106.5" width="73.5" height="30" as="geometry" />
        </mxCell>
        <mxCell id="NktsKnsuioMNZa4gkGov-57" style="shape=partialRectangle;collapsible=0;dropTarget=0;pointerEvents=0;fillColor=none;top=0;left=0;bottom=0;right=0;points=[[0,0.5],[1,0.5]];portConstraint=eastwest;" vertex="1" parent="NktsKnsuioMNZa4gkGov-35">
          <mxGeometry y="210" width="180" height="30" as="geometry" />
        </mxCell>
        <mxCell id="NktsKnsuioMNZa4gkGov-58" value="ecology" style="shape=partialRectangle;connectable=0;fillColor=#ffe6cc;top=0;left=0;bottom=0;right=0;editable=1;overflow=hidden;strokeColor=#d79b00;" vertex="1" parent="NktsKnsuioMNZa4gkGov-57">
          <mxGeometry width="106.5" height="30" as="geometry" />
        </mxCell>
        <mxCell id="NktsKnsuioMNZa4gkGov-59" value="Double" style="shape=partialRectangle;connectable=0;fillColor=none;top=0;left=0;bottom=0;right=0;align=left;spacingLeft=6;overflow=hidden;" vertex="1" parent="NktsKnsuioMNZa4gkGov-57">
          <mxGeometry x="106.5" width="73.5" height="30" as="geometry" />
        </mxCell>
        <mxCell id="NktsKnsuioMNZa4gkGov-54" style="shape=partialRectangle;collapsible=0;dropTarget=0;pointerEvents=0;fillColor=none;top=0;left=0;bottom=0;right=0;points=[[0,0.5],[1,0.5]];portConstraint=eastwest;" vertex="1" parent="NktsKnsuioMNZa4gkGov-35">
          <mxGeometry y="240" width="180" height="30" as="geometry" />
        </mxCell>
        <mxCell id="NktsKnsuioMNZa4gkGov-55" value="science" style="shape=partialRectangle;connectable=0;fillColor=#ffe6cc;top=0;left=0;bottom=0;right=0;editable=1;overflow=hidden;strokeColor=#d79b00;" vertex="1" parent="NktsKnsuioMNZa4gkGov-54">
          <mxGeometry width="106.5" height="30" as="geometry" />
        </mxCell>
        <mxCell id="NktsKnsuioMNZa4gkGov-56" value="Double" style="shape=partialRectangle;connectable=0;fillColor=none;top=0;left=0;bottom=0;right=0;align=left;spacingLeft=6;overflow=hidden;" vertex="1" parent="NktsKnsuioMNZa4gkGov-54">
          <mxGeometry x="106.5" width="73.5" height="30" as="geometry" />
        </mxCell>
        <mxCell id="NktsKnsuioMNZa4gkGov-51" style="shape=partialRectangle;collapsible=0;dropTarget=0;pointerEvents=0;fillColor=none;top=0;left=0;bottom=0;right=0;points=[[0,0.5],[1,0.5]];portConstraint=eastwest;" vertex="1" parent="NktsKnsuioMNZa4gkGov-35">
          <mxGeometry y="270" width="180" height="30" as="geometry" />
        </mxCell>
        <mxCell id="NktsKnsuioMNZa4gkGov-52" value="education" style="shape=partialRectangle;connectable=0;fillColor=#ffe6cc;top=0;left=0;bottom=0;right=0;editable=1;overflow=hidden;strokeColor=#d79b00;" vertex="1" parent="NktsKnsuioMNZa4gkGov-51">
          <mxGeometry width="106.5" height="30" as="geometry" />
        </mxCell>
        <mxCell id="NktsKnsuioMNZa4gkGov-53" value="Double" style="shape=partialRectangle;connectable=0;fillColor=none;top=0;left=0;bottom=0;right=0;align=left;spacingLeft=6;overflow=hidden;" vertex="1" parent="NktsKnsuioMNZa4gkGov-51">
          <mxGeometry x="106.5" width="73.5" height="30" as="geometry" />
        </mxCell>
        <mxCell id="NktsKnsuioMNZa4gkGov-48" style="shape=partialRectangle;collapsible=0;dropTarget=0;pointerEvents=0;fillColor=none;top=0;left=0;bottom=0;right=0;points=[[0,0.5],[1,0.5]];portConstraint=eastwest;" vertex="1" parent="NktsKnsuioMNZa4gkGov-35">
          <mxGeometry y="300" width="180" height="30" as="geometry" />
        </mxCell>
        <mxCell id="NktsKnsuioMNZa4gkGov-49" value="people" style="shape=partialRectangle;connectable=0;fillColor=#ffe6cc;top=0;left=0;bottom=0;right=0;editable=1;overflow=hidden;strokeColor=#d79b00;" vertex="1" parent="NktsKnsuioMNZa4gkGov-48">
          <mxGeometry width="106.5" height="30" as="geometry" />
        </mxCell>
        <mxCell id="NktsKnsuioMNZa4gkGov-50" value="Double" style="shape=partialRectangle;connectable=0;fillColor=none;top=0;left=0;bottom=0;right=0;align=left;spacingLeft=6;overflow=hidden;" vertex="1" parent="NktsKnsuioMNZa4gkGov-48">
          <mxGeometry x="106.5" width="73.5" height="30" as="geometry" />
        </mxCell>
        <mxCell id="NktsKnsuioMNZa4gkGov-63" style="shape=partialRectangle;collapsible=0;dropTarget=0;pointerEvents=0;fillColor=none;top=0;left=0;bottom=0;right=0;points=[[0,0.5],[1,0.5]];portConstraint=eastwest;" vertex="1" parent="NktsKnsuioMNZa4gkGov-35">
          <mxGeometry y="330" width="180" height="30" as="geometry" />
        </mxCell>
        <mxCell id="NktsKnsuioMNZa4gkGov-64" value="health" style="shape=partialRectangle;connectable=0;fillColor=#ffe6cc;top=0;left=0;bottom=0;right=0;editable=1;overflow=hidden;strokeColor=#d79b00;" vertex="1" parent="NktsKnsuioMNZa4gkGov-63">
          <mxGeometry width="106.5" height="30" as="geometry" />
        </mxCell>
        <mxCell id="NktsKnsuioMNZa4gkGov-65" value="Double" style="shape=partialRectangle;connectable=0;fillColor=none;top=0;left=0;bottom=0;right=0;align=left;spacingLeft=6;overflow=hidden;" vertex="1" parent="NktsKnsuioMNZa4gkGov-63">
          <mxGeometry x="106.5" width="73.5" height="30" as="geometry" />
        </mxCell>
        <mxCell id="NktsKnsuioMNZa4gkGov-75" value="Coefficient" style="shape=table;startSize=30;container=1;collapsible=1;childLayout=tableLayout;fixedRows=1;rowLines=0;fontStyle=1;align=center;resizeLast=1;" vertex="1" parent="1">
          <mxGeometry x="560" y="200" width="180" height="160" as="geometry" />
        </mxCell>
        <mxCell id="NktsKnsuioMNZa4gkGov-76" value="" style="shape=partialRectangle;collapsible=0;dropTarget=0;pointerEvents=0;fillColor=none;top=0;left=0;bottom=1;right=0;points=[[0,0.5],[1,0.5]];portConstraint=eastwest;" vertex="1" parent="NktsKnsuioMNZa4gkGov-75">
          <mxGeometry y="30" width="180" height="30" as="geometry" />
        </mxCell>
        <mxCell id="NktsKnsuioMNZa4gkGov-77" value="Class" style="shape=partialRectangle;connectable=0;fillColor=none;top=0;left=0;bottom=0;right=0;fontStyle=1;overflow=hidden;" vertex="1" parent="NktsKnsuioMNZa4gkGov-76">
          <mxGeometry width="110" height="30" as="geometry" />
        </mxCell>
        <mxCell id="NktsKnsuioMNZa4gkGov-78" value="Type" style="shape=partialRectangle;connectable=0;fillColor=none;top=0;left=0;bottom=0;right=0;align=left;spacingLeft=6;fontStyle=5;overflow=hidden;" vertex="1" parent="NktsKnsuioMNZa4gkGov-76">
          <mxGeometry x="110" width="70" height="30" as="geometry" />
        </mxCell>
        <mxCell id="NktsKnsuioMNZa4gkGov-79" value="" style="shape=partialRectangle;collapsible=0;dropTarget=0;pointerEvents=0;fillColor=none;top=0;left=0;bottom=0;right=0;points=[[0,0.5],[1,0.5]];portConstraint=eastwest;" vertex="1" parent="NktsKnsuioMNZa4gkGov-75">
          <mxGeometry y="60" width="180" height="30" as="geometry" />
        </mxCell>
        <mxCell id="NktsKnsuioMNZa4gkGov-80" value="name" style="shape=partialRectangle;connectable=0;fillColor=none;top=0;left=0;bottom=0;right=0;editable=1;overflow=hidden;" vertex="1" parent="NktsKnsuioMNZa4gkGov-79">
          <mxGeometry width="110" height="30" as="geometry" />
        </mxCell>
        <mxCell id="NktsKnsuioMNZa4gkGov-81" value="String" style="shape=partialRectangle;connectable=0;fillColor=none;top=0;left=0;bottom=0;right=0;align=left;spacingLeft=6;overflow=hidden;" vertex="1" parent="NktsKnsuioMNZa4gkGov-79">
          <mxGeometry x="110" width="70" height="30" as="geometry" />
        </mxCell>
        <mxCell id="NktsKnsuioMNZa4gkGov-82" value="" style="shape=partialRectangle;collapsible=0;dropTarget=0;pointerEvents=0;fillColor=none;top=0;left=0;bottom=0;right=0;points=[[0,0.5],[1,0.5]];portConstraint=eastwest;" vertex="1" parent="NktsKnsuioMNZa4gkGov-75">
          <mxGeometry y="90" width="180" height="30" as="geometry" />
        </mxCell>
        <mxCell id="NktsKnsuioMNZa4gkGov-83" value="value" style="shape=partialRectangle;connectable=0;fillColor=none;top=0;left=0;bottom=0;right=0;editable=1;overflow=hidden;" vertex="1" parent="NktsKnsuioMNZa4gkGov-82">
          <mxGeometry width="110" height="30" as="geometry" />
        </mxCell>
        <mxCell id="NktsKnsuioMNZa4gkGov-84" value="Double" style="shape=partialRectangle;connectable=0;fillColor=none;top=0;left=0;bottom=0;right=0;align=left;spacingLeft=6;overflow=hidden;" vertex="1" parent="NktsKnsuioMNZa4gkGov-82">
          <mxGeometry x="110" width="70" height="30" as="geometry" />
        </mxCell>
        <mxCell id="NktsKnsuioMNZa4gkGov-85" value="" style="shape=partialRectangle;collapsible=0;dropTarget=0;pointerEvents=0;fillColor=none;top=0;left=0;bottom=0;right=0;points=[[0,0.5],[1,0.5]];portConstraint=eastwest;" vertex="1" parent="NktsKnsuioMNZa4gkGov-75">
          <mxGeometry y="120" width="180" height="30" as="geometry" />
        </mxCell>
        <mxCell id="NktsKnsuioMNZa4gkGov-86" value="fatherName" style="shape=partialRectangle;connectable=0;fillColor=none;top=0;left=0;bottom=0;right=0;editable=1;overflow=hidden;" vertex="1" parent="NktsKnsuioMNZa4gkGov-85">
          <mxGeometry width="110" height="30" as="geometry" />
        </mxCell>
        <mxCell id="NktsKnsuioMNZa4gkGov-87" value="String" style="shape=partialRectangle;connectable=0;fillColor=none;top=0;left=0;bottom=0;right=0;align=left;spacingLeft=6;overflow=hidden;" vertex="1" parent="NktsKnsuioMNZa4gkGov-85">
          <mxGeometry x="110" width="70" height="30" as="geometry" />
        </mxCell>
        <mxCell id="NktsKnsuioMNZa4gkGov-185" value="Data" style="shape=table;startSize=30;container=1;collapsible=1;childLayout=tableLayout;fixedRows=1;rowLines=0;fontStyle=1;align=center;resizeLast=1;" vertex="1" parent="1">
          <mxGeometry x="520" y="385" width="180" height="400" as="geometry" />
        </mxCell>
        <mxCell id="NktsKnsuioMNZa4gkGov-186" value="" style="shape=partialRectangle;collapsible=0;dropTarget=0;pointerEvents=0;fillColor=none;top=0;left=0;bottom=1;right=0;points=[[0,0.5],[1,0.5]];portConstraint=eastwest;" vertex="1" parent="NktsKnsuioMNZa4gkGov-185">
          <mxGeometry y="30" width="180" height="30" as="geometry" />
        </mxCell>
        <mxCell id="NktsKnsuioMNZa4gkGov-187" value="Class" style="shape=partialRectangle;connectable=0;fillColor=none;top=0;left=0;bottom=0;right=0;fontStyle=1;overflow=hidden;" vertex="1" parent="NktsKnsuioMNZa4gkGov-186">
          <mxGeometry width="106.5" height="30" as="geometry" />
        </mxCell>
        <mxCell id="NktsKnsuioMNZa4gkGov-188" value="Type" style="shape=partialRectangle;connectable=0;fillColor=none;top=0;left=0;bottom=0;right=0;align=left;spacingLeft=6;fontStyle=5;overflow=hidden;" vertex="1" parent="NktsKnsuioMNZa4gkGov-186">
          <mxGeometry x="106.5" width="73.5" height="30" as="geometry" />
        </mxCell>
        <mxCell id="NktsKnsuioMNZa4gkGov-189" value="" style="shape=partialRectangle;collapsible=0;dropTarget=0;pointerEvents=0;fillColor=none;top=0;left=0;bottom=0;right=0;points=[[0,0.5],[1,0.5]];portConstraint=eastwest;" vertex="1" parent="NktsKnsuioMNZa4gkGov-185">
          <mxGeometry y="60" width="180" height="30" as="geometry" />
        </mxCell>
        <mxCell id="NktsKnsuioMNZa4gkGov-190" value="oid" style="shape=partialRectangle;connectable=0;fillColor=none;top=0;left=0;bottom=0;right=0;editable=1;overflow=hidden;" vertex="1" parent="NktsKnsuioMNZa4gkGov-189">
          <mxGeometry width="106.5" height="30" as="geometry" />
        </mxCell>
        <mxCell id="NktsKnsuioMNZa4gkGov-191" value="UUID" style="shape=partialRectangle;connectable=0;fillColor=none;top=0;left=0;bottom=0;right=0;align=left;spacingLeft=6;overflow=hidden;" vertex="1" parent="NktsKnsuioMNZa4gkGov-189">
          <mxGeometry x="106.5" width="73.5" height="30" as="geometry" />
        </mxCell>
        <mxCell id="NktsKnsuioMNZa4gkGov-195" style="shape=partialRectangle;collapsible=0;dropTarget=0;pointerEvents=0;fillColor=none;top=0;left=0;bottom=0;right=0;points=[[0,0.5],[1,0.5]];portConstraint=eastwest;" vertex="1" parent="NktsKnsuioMNZa4gkGov-185">
          <mxGeometry y="90" width="180" height="30" as="geometry" />
        </mxCell>
        <mxCell id="NktsKnsuioMNZa4gkGov-196" value="year" style="shape=partialRectangle;connectable=0;fillColor=none;top=0;left=0;bottom=0;right=0;editable=1;overflow=hidden;" vertex="1" parent="NktsKnsuioMNZa4gkGov-195">
          <mxGeometry width="106.5" height="30" as="geometry" />
        </mxCell>
        <mxCell id="NktsKnsuioMNZa4gkGov-197" value="Integer" style="shape=partialRectangle;connectable=0;fillColor=none;top=0;left=0;bottom=0;right=0;align=left;spacingLeft=6;overflow=hidden;" vertex="1" parent="NktsKnsuioMNZa4gkGov-195">
          <mxGeometry x="106.5" width="73.5" height="30" as="geometry" />
        </mxCell>
        <mxCell id="NktsKnsuioMNZa4gkGov-198" value="" style="shape=partialRectangle;collapsible=0;dropTarget=0;pointerEvents=0;fillColor=none;top=0;left=0;bottom=0;right=0;points=[[0,0.5],[1,0.5]];portConstraint=eastwest;" vertex="1" parent="NktsKnsuioMNZa4gkGov-185">
          <mxGeometry y="120" width="180" height="30" as="geometry" />
        </mxCell>
        <mxCell id="NktsKnsuioMNZa4gkGov-199" value="economy" style="shape=partialRectangle;connectable=0;fillColor=#ffe6cc;top=0;left=0;bottom=0;right=0;editable=1;overflow=hidden;strokeColor=#d79b00;" vertex="1" parent="NktsKnsuioMNZa4gkGov-198">
          <mxGeometry width="106.5" height="30" as="geometry" />
        </mxCell>
        <mxCell id="NktsKnsuioMNZa4gkGov-200" value="Double" style="shape=partialRectangle;connectable=0;fillColor=none;top=0;left=0;bottom=0;right=0;align=left;spacingLeft=6;overflow=hidden;" vertex="1" parent="NktsKnsuioMNZa4gkGov-198">
          <mxGeometry x="106.5" width="73.5" height="30" as="geometry" />
        </mxCell>
        <mxCell id="NktsKnsuioMNZa4gkGov-201" style="shape=partialRectangle;collapsible=0;dropTarget=0;pointerEvents=0;fillColor=none;top=0;left=0;bottom=0;right=0;points=[[0,0.5],[1,0.5]];portConstraint=eastwest;" vertex="1" parent="NktsKnsuioMNZa4gkGov-185">
          <mxGeometry y="150" width="180" height="30" as="geometry" />
        </mxCell>
        <mxCell id="NktsKnsuioMNZa4gkGov-202" value="finance" style="shape=partialRectangle;connectable=0;fillColor=#ffe6cc;top=0;left=0;bottom=0;right=0;editable=1;overflow=hidden;strokeColor=#d79b00;" vertex="1" parent="NktsKnsuioMNZa4gkGov-201">
          <mxGeometry width="106.5" height="30" as="geometry" />
        </mxCell>
        <mxCell id="NktsKnsuioMNZa4gkGov-203" value="Double" style="shape=partialRectangle;connectable=0;fillColor=none;top=0;left=0;bottom=0;right=0;align=left;spacingLeft=6;overflow=hidden;" vertex="1" parent="NktsKnsuioMNZa4gkGov-201">
          <mxGeometry x="106.5" width="73.5" height="30" as="geometry" />
        </mxCell>
        <mxCell id="NktsKnsuioMNZa4gkGov-204" style="shape=partialRectangle;collapsible=0;dropTarget=0;pointerEvents=0;fillColor=none;top=0;left=0;bottom=0;right=0;points=[[0,0.5],[1,0.5]];portConstraint=eastwest;" vertex="1" parent="NktsKnsuioMNZa4gkGov-185">
          <mxGeometry y="180" width="180" height="30" as="geometry" />
        </mxCell>
        <mxCell id="NktsKnsuioMNZa4gkGov-205" value="ecology" style="shape=partialRectangle;connectable=0;fillColor=#ffe6cc;top=0;left=0;bottom=0;right=0;editable=1;overflow=hidden;strokeColor=#d79b00;" vertex="1" parent="NktsKnsuioMNZa4gkGov-204">
          <mxGeometry width="106.5" height="30" as="geometry" />
        </mxCell>
        <mxCell id="NktsKnsuioMNZa4gkGov-206" value="Double" style="shape=partialRectangle;connectable=0;fillColor=none;top=0;left=0;bottom=0;right=0;align=left;spacingLeft=6;overflow=hidden;" vertex="1" parent="NktsKnsuioMNZa4gkGov-204">
          <mxGeometry x="106.5" width="73.5" height="30" as="geometry" />
        </mxCell>
        <mxCell id="NktsKnsuioMNZa4gkGov-207" style="shape=partialRectangle;collapsible=0;dropTarget=0;pointerEvents=0;fillColor=none;top=0;left=0;bottom=0;right=0;points=[[0,0.5],[1,0.5]];portConstraint=eastwest;" vertex="1" parent="NktsKnsuioMNZa4gkGov-185">
          <mxGeometry y="210" width="180" height="30" as="geometry" />
        </mxCell>
        <mxCell id="NktsKnsuioMNZa4gkGov-208" value="science" style="shape=partialRectangle;connectable=0;fillColor=#ffe6cc;top=0;left=0;bottom=0;right=0;editable=1;overflow=hidden;strokeColor=#d79b00;" vertex="1" parent="NktsKnsuioMNZa4gkGov-207">
          <mxGeometry width="106.5" height="30" as="geometry" />
        </mxCell>
        <mxCell id="NktsKnsuioMNZa4gkGov-209" value="Double" style="shape=partialRectangle;connectable=0;fillColor=none;top=0;left=0;bottom=0;right=0;align=left;spacingLeft=6;overflow=hidden;" vertex="1" parent="NktsKnsuioMNZa4gkGov-207">
          <mxGeometry x="106.5" width="73.5" height="30" as="geometry" />
        </mxCell>
        <mxCell id="NktsKnsuioMNZa4gkGov-210" style="shape=partialRectangle;collapsible=0;dropTarget=0;pointerEvents=0;fillColor=none;top=0;left=0;bottom=0;right=0;points=[[0,0.5],[1,0.5]];portConstraint=eastwest;" vertex="1" parent="NktsKnsuioMNZa4gkGov-185">
          <mxGeometry y="240" width="180" height="30" as="geometry" />
        </mxCell>
        <mxCell id="NktsKnsuioMNZa4gkGov-211" value="education" style="shape=partialRectangle;connectable=0;fillColor=#ffe6cc;top=0;left=0;bottom=0;right=0;editable=1;overflow=hidden;strokeColor=#d79b00;" vertex="1" parent="NktsKnsuioMNZa4gkGov-210">
          <mxGeometry width="106.5" height="30" as="geometry" />
        </mxCell>
        <mxCell id="NktsKnsuioMNZa4gkGov-212" value="Double" style="shape=partialRectangle;connectable=0;fillColor=none;top=0;left=0;bottom=0;right=0;align=left;spacingLeft=6;overflow=hidden;" vertex="1" parent="NktsKnsuioMNZa4gkGov-210">
          <mxGeometry x="106.5" width="73.5" height="30" as="geometry" />
        </mxCell>
        <mxCell id="NktsKnsuioMNZa4gkGov-213" style="shape=partialRectangle;collapsible=0;dropTarget=0;pointerEvents=0;fillColor=none;top=0;left=0;bottom=0;right=0;points=[[0,0.5],[1,0.5]];portConstraint=eastwest;" vertex="1" parent="NktsKnsuioMNZa4gkGov-185">
          <mxGeometry y="270" width="180" height="30" as="geometry" />
        </mxCell>
        <mxCell id="NktsKnsuioMNZa4gkGov-214" value="people" style="shape=partialRectangle;connectable=0;fillColor=#ffe6cc;top=0;left=0;bottom=0;right=0;editable=1;overflow=hidden;strokeColor=#d79b00;" vertex="1" parent="NktsKnsuioMNZa4gkGov-213">
          <mxGeometry width="106.5" height="30" as="geometry" />
        </mxCell>
        <mxCell id="NktsKnsuioMNZa4gkGov-215" value="Double" style="shape=partialRectangle;connectable=0;fillColor=none;top=0;left=0;bottom=0;right=0;align=left;spacingLeft=6;overflow=hidden;" vertex="1" parent="NktsKnsuioMNZa4gkGov-213">
          <mxGeometry x="106.5" width="73.5" height="30" as="geometry" />
        </mxCell>
        <mxCell id="NktsKnsuioMNZa4gkGov-216" style="shape=partialRectangle;collapsible=0;dropTarget=0;pointerEvents=0;fillColor=none;top=0;left=0;bottom=0;right=0;points=[[0,0.5],[1,0.5]];portConstraint=eastwest;" vertex="1" parent="NktsKnsuioMNZa4gkGov-185">
          <mxGeometry y="300" width="180" height="30" as="geometry" />
        </mxCell>
        <mxCell id="NktsKnsuioMNZa4gkGov-217" value="health" style="shape=partialRectangle;connectable=0;fillColor=#ffe6cc;top=0;left=0;bottom=0;right=0;editable=1;overflow=hidden;strokeColor=#d79b00;" vertex="1" parent="NktsKnsuioMNZa4gkGov-216">
          <mxGeometry width="106.5" height="30" as="geometry" />
        </mxCell>
        <mxCell id="NktsKnsuioMNZa4gkGov-218" value="Double" style="shape=partialRectangle;connectable=0;fillColor=none;top=0;left=0;bottom=0;right=0;align=left;spacingLeft=6;overflow=hidden;" vertex="1" parent="NktsKnsuioMNZa4gkGov-216">
          <mxGeometry x="106.5" width="73.5" height="30" as="geometry" />
        </mxCell>
        <mxCell id="NktsKnsuioMNZa4gkGov-219" style="shape=partialRectangle;collapsible=0;dropTarget=0;pointerEvents=0;fillColor=none;top=0;left=0;bottom=0;right=0;points=[[0,0.5],[1,0.5]];portConstraint=eastwest;" vertex="1" parent="NktsKnsuioMNZa4gkGov-185">
          <mxGeometry y="330" width="180" height="30" as="geometry" />
        </mxCell>
        <mxCell id="NktsKnsuioMNZa4gkGov-220" value="GDP" style="shape=partialRectangle;connectable=0;top=0;left=0;bottom=0;right=0;editable=1;overflow=hidden;" vertex="1" parent="NktsKnsuioMNZa4gkGov-219">
          <mxGeometry width="106.5" height="30" as="geometry" />
        </mxCell>
        <mxCell id="NktsKnsuioMNZa4gkGov-221" value="Double" style="shape=partialRectangle;connectable=0;fillColor=none;top=0;left=0;bottom=0;right=0;align=left;spacingLeft=6;overflow=hidden;" vertex="1" parent="NktsKnsuioMNZa4gkGov-219">
          <mxGeometry x="106.5" width="73.5" height="30" as="geometry" />
        </mxCell>
        <mxCell id="NktsKnsuioMNZa4gkGov-222" style="shape=partialRectangle;collapsible=0;dropTarget=0;pointerEvents=0;fillColor=none;top=0;left=0;bottom=0;right=0;points=[[0,0.5],[1,0.5]];portConstraint=eastwest;" vertex="1" parent="NktsKnsuioMNZa4gkGov-185">
          <mxGeometry y="360" width="180" height="30" as="geometry" />
        </mxCell>
        <mxCell id="NktsKnsuioMNZa4gkGov-223" value="..." style="shape=partialRectangle;connectable=0;fillColor=none;top=0;left=0;bottom=0;right=0;editable=1;overflow=hidden;" vertex="1" parent="NktsKnsuioMNZa4gkGov-222">
          <mxGeometry width="106.5" height="30" as="geometry" />
        </mxCell>
        <mxCell id="NktsKnsuioMNZa4gkGov-224" value="Double" style="shape=partialRectangle;connectable=0;fillColor=none;top=0;left=0;bottom=0;right=0;align=left;spacingLeft=6;overflow=hidden;" vertex="1" parent="NktsKnsuioMNZa4gkGov-222">
          <mxGeometry x="106.5" width="73.5" height="30" as="geometry" />
        </mxCell>
      </root>
    </mxGraphModel>
  </diagram>
</mxfile>
